<svg xmlns="http://www.w3.org/2000/svg" viewBox="0 0 12 12"><g data-name="Group 583"><g data-name="Ellipse 26" stroke="#fba905" fill="none"><circle cx="6" cy="6" r="6" stroke="none"/><circle cx="6" cy="6" r="5.5"/></g><path data-name="Union 8" d="M5.636 9.25a.876.876 0 0 1-.386-.121L3.195 7.925a.911.911 0 0 1-.326-1.234.882.882 0 0 1 1.215-.331l1.284.753 2.223-3.911a.882.882 0 0 1 1.214-.331.911.911 0 0 1 .325 1.234L6.471 8.783l-.008.015a.9.9 0 0 1-.147.193.883.883 0 0 1-.624.259z" fill="#fba905"/></g></svg>