<svg xmlns="http://www.w3.org/2000/svg" viewBox="0 0 48 48"><path data-name="Path 1170" d="M24 0A24 24 0 1 1 0 24 24 24 0 0 1 24 0z" fill="#dfe0e0"/><path data-name="Path 1175" d="M36.988 16.471a14.935 14.935 0 0 0-5.459-5.459A14.671 14.671 0 0 0 24 9a14.673 14.673 0 0 0-7.529 2.012 14.933 14.933 0 0 0-5.459 5.459A14.673 14.673 0 0 0 9 23.999a14.577 14.577 0 0 0 2.861 8.818 14.691 14.691 0 0 0 7.392 5.42.874.874 0 0 0 .781-.137.764.764 0 0 0 .254-.586l-.01-1.055q-.01-.996-.01-1.738l-.449.078a5.73 5.73 0 0 1-1.084.068 8.259 8.259 0 0 1-1.357-.132 3.033 3.033 0 0 1-1.309-.586 2.478 2.478 0 0 1-.859-1.2l-.2-.449a4.88 4.88 0 0 0-.615-1 2.357 2.357 0 0 0-.85-.742l-.137-.1a1.434 1.434 0 0 1-.254-.235 1.071 1.071 0 0 1-.176-.273q-.059-.137.1-.225a1.267 1.267 0 0 1 .566-.087l.39.058a2.851 2.851 0 0 1 .967.469 3.152 3.152 0 0 1 .947 1.015 3.443 3.443 0 0 0 1.084 1.221 2.3 2.3 0 0 0 1.279.42 5.554 5.554 0 0 0 1.113-.1 3.884 3.884 0 0 0 .884-.286 3.164 3.164 0 0 1 .957-2.012 13.373 13.373 0 0 1-2-.352 7.971 7.971 0 0 1-1.836-.762 5.258 5.258 0 0 1-1.572-1.308 6.288 6.288 0 0 1-1.027-2.053 9.752 9.752 0 0 1-.4-2.93 5.7 5.7 0 0 1 1.543-4.024 5.25 5.25 0 0 1 .137-3.984 2.737 2.737 0 0 1 1.68.264 11.743 11.743 0 0 1 1.631.752q.518.312.83.527a14.105 14.105 0 0 1 7.5 0l.742-.469a10.511 10.511 0 0 1 1.8-.86 2.56 2.56 0 0 1 1.583-.215 5.2 5.2 0 0 1 .156 3.984 5.7 5.7 0 0 1 1.543 4.024 9.861 9.861 0 0 1-.4 2.939 6.044 6.044 0 0 1-1.035 2.051 5.46 5.46 0 0 1-1.582 1.3 7.986 7.986 0 0 1-1.836.762 13.359 13.359 0 0 1-2 .352 3.479 3.479 0 0 1 1.015 2.773v4.121a.778.778 0 0 0 .244.586.848.848 0 0 0 .771.136 14.689 14.689 0 0 0 7.393-5.42A14.58 14.58 0 0 0 39 23.999a14.684 14.684 0 0 0-2.012-7.528z" fill="#282d31"/></svg>