<svg xmlns="http://www.w3.org/2000/svg" viewBox="0 0 64 64"><defs><style>.cls-2{fill:#282d31}</style></defs><g id="linkedin" transform="translate(-8 -8)"><path id="Path_1170" data-name="Path 1170" d="M32 0A32 32 0 1 1 0 32 32 32 0 0 1 32 0z" transform="translate(8 8)" fill="#dfe0e0"/><g id="Group_558" data-name="Group 558" transform="translate(20 21.333)"><path id="Path_28" data-name="Path 28" class="cls-2" d="M0 0h8.594v25.807H0z" transform="translate(.495 12.422)"/><path id="Path_22" data-name="Path 22" class="cls-2" d="M175.061 142.287a9.249 9.249 0 0 0-7.161-2.956 10.321 10.321 0 0 0-2.982.4 6.766 6.766 0 0 0-2.266 1.133 9.7 9.7 0 0 0-2.487 2.732v-3.67H151.6l.026 1.25q.026 1.25.026 7.708t-.052 16.849h8.568v-14.4a6.291 6.291 0 0 1 .286-2.109 5.532 5.532 0 0 1 1.651-2.224 4.217 4.217 0 0 1 2.748-.9 3.705 3.705 0 0 1 3.294 1.549 7.535 7.535 0 0 1 1.055 4.284v13.8h8.568v-14.788q-.001-5.703-2.709-8.658z" transform="translate(-137.769 -127.508)"/><path id="Path_23" data-name="Path 23" class="cls-2" d="M4.844 9.708a4.9 4.9 0 0 0-3.5 1.263A4.193 4.193 0 0 0 0 14.161a4.267 4.267 0 0 0 1.3 3.177 4.7 4.7 0 0 0 3.437 1.276h.052a4.907 4.907 0 0 0 3.531-1.276 4.123 4.123 0 0 0 1.315-3.177 4.344 4.344 0 0 0-1.328-3.19 4.762 4.762 0 0 0-3.463-1.263z" transform="translate(0 -9.708)"/></g></g></svg>