<svg xmlns="http://www.w3.org/2000/svg" viewBox="0 0 21.296 21.296"><defs><style>.cls-1{fill:#fff}</style></defs><g id="ticket" transform="translate(8 -.001)"><g id="Group_562" data-name="Group 562" transform="translate(-8 .001)"><path id="Path_1176" data-name="Path 1176" class="cls-1" d="M20.829 7.066l-1.593-1.58a2.441 2.441 0 0 1-3.437 0 2.339 2.339 0 0 1-.708-1.719 2.341 2.341 0 0 1 .709-1.719L14.218.469a1.633 1.633 0 0 0-2.287 0L.468 11.919a1.632 1.632 0 0 0 0 2.287l1.58 1.594a2.341 2.341 0 0 1 1.719-.708 2.339 2.339 0 0 1 1.719.708 2.441 2.441 0 0 1 0 3.438l1.593 1.592a1.633 1.633 0 0 0 2.288 0L20.829 9.353a1.633 1.633 0 0 0 0-2.287zM17.4 9.594L9.593 17.4a.824.824 0 0 1-1.137 0L3.88 12.829a.794.794 0 0 1 0-1.138l7.811-7.811a.825.825 0 0 1 1.138 0L17.4 8.456a.793.793 0 0 1 0 1.138z" transform="translate(0 -.001)"/><path id="Path_1177" data-name="Path 1177" class="cls-1" d="M120.881 113.639l3.994 3.994-7.229 7.229-3.994-3.994z" transform="translate(-108.621 -108.609)"/></g></g></svg>