<svg xmlns="http://www.w3.org/2000/svg" viewBox="0 0 48 48"><path d="M44.782 11.953a23.9 23.9 0 0 0-8.734-8.734A23.476 23.476 0 0 0 24 0a23.477 23.477 0 0 0-12.046 3.219 23.893 23.893 0 0 0-8.735 8.734A23.476 23.476 0 0 0 0 24a23.481 23.481 0 0 0 3.219 12.047 23.905 23.905 0 0 0 8.734 8.734A23.479 23.479 0 0 0 24 48a23.479 23.479 0 0 0 12.047-3.219 23.893 23.893 0 0 0 8.734-8.734A23.482 23.482 0 0 0 48 24a23.483 23.483 0 0 0-3.218-12.047zM27 36.628c-.209-.249-.282-.458-.219-.626a.459.459 0 0 1-.219.281 2.98 2.98 0 0 0-.562-.468 2.949 2.949 0 0 1-.563-.47 33.482 33.482 0 0 1-.453-.718 3.148 3.148 0 0 1-.249-.485c-.052-.136-.057-.213-.016-.234A2.136 2.136 0 0 1 23 33.564a3.075 3.075 0 0 1-.656-.656 1.017 1.017 0 0 0-.906-.469q-.156.031-.422.109a1.634 1.634 0 0 1-.453.078 1.426 1.426 0 0 1-.5-.125 4.03 4.03 0 0 1-.672-.359 4.479 4.479 0 0 0-.578-.328l-.406-.219-.5-.249a1.535 1.535 0 0 1-.391-.3.99.99 0 0 1-.265-.422 6.017 6.017 0 0 1-.156-.75 2.334 2.334 0 0 0-.25-.812 2.817 2.817 0 0 0-.531-.625.985.985 0 0 0-.625-.313c.167 0 .167-.14 0-.422a3.166 3.166 0 0 0-.438-.609 49.608 49.608 0 0 1-.906-1.001 2.5 2.5 0 0 1-.375-.578.663.663 0 0 1-.062-.547c.021-.021 0-.052-.063-.094a1.62 1.62 0 0 0-.234-.125 5.398 5.398 0 0 0-.265-.109.615.615 0 0 0-.188-.047 2.388 2.388 0 0 1 .141.453 1.8 1.8 0 0 0 .172.485q.063.125.531.906a3.68 3.68 0 0 1 .75 1.938c-.125.041-.209.021-.25-.062a1.137 1.137 0 0 1-.094-.344 1.965 1.965 0 0 0-.063-.312 1.175 1.175 0 0 0-.485-.407 1.062 1.062 0 0 1-.484-.437.146.146 0 0 0 .078-.031.151.151 0 0 1 .078-.031 1.074 1.074 0 0 0-.328-.719q-.36-.437-.3-.625a1.531 1.531 0 0 1-.438-.734 2.756 2.756 0 0 0-.313-.7 1.337 1.337 0 0 0-.312-.328q-.188-.14-.469-.312T11 23.1a1.2 1.2 0 0 1-.25-.281q-1.031-1.25-.625-1.344-.406.094-.672-.61a1.946 1.946 0 0 1-.172-1.078l-.062-.031a4.634 4.634 0 0 0 .031-.735 7.227 7.227 0 0 1 .078-1.109q.078-.5.3-.5-.219.031-.328-.39a.836.836 0 0 1-.016-.578c.021-.063.115-.02.281.125a1.6 1.6 0 0 1 .281.281q.406-.219.313-.563a4.29 4.29 0 0 0-.656-.656 11.633 11.633 0 0 0-1.375-.844.438.438 0 0 0-.094-.594q-.312.188-.359.094a1.21 1.21 0 0 1-.078-.344c-.021-.166-.073-.26-.156-.281a.825.825 0 0 1-.375-.25 19.722 19.722 0 0 1 7.343-6.942 5 5 0 0 1 .687-.031 1.249 1.249 0 0 1 .469.156 2.466 2.466 0 0 1 .453.344q.235.218.359.312a.765.765 0 0 0-.156-.563q.062-.188.687-.375a1.769 1.769 0 0 1 .937.031 8.221 8.221 0 0 0-.625-.781l-.156.156q-.25-.219-1.312.219c-.041.021-.146.078-.312.172a3.653 3.653 0 0 1-.406.2.77.77 0 0 1-.375.031A17.7 17.7 0 0 1 17.6 5.063a3.086 3.086 0 0 1 .312.265q.219.2.344.3c-.062-.041-.1-.021-.125.062a.806.806 0 0 0 0 .625.581.581 0 0 0 .422.25 2.327 2.327 0 0 0 .641-.032 3.892 3.892 0 0 1 .5-.062L20 6.5q1 .094.781-.188a2.006 2.006 0 0 1 .219.517 1.386 1.386 0 0 0 .281.547q.156-.126.063-.438a.513.513 0 0 1 0-.438.356.356 0 0 1 .187-.125l.359-.14q.2-.078.266-.109.187-.125-.25-.438a2.134 2.134 0 0 0-.265-.094 4.313 4.313 0 0 1-.359-.125 1.986 1.986 0 0 1-.328-.172.267.267 0 0 1-.157-.25.845.845 0 0 1 .172-.359.851.851 0 0 1 .609-.125 1.547 1.547 0 0 1 .641.156q.844.469.25.844a2.242 2.242 0 0 1 .75.25q.437.219.344.469.25-.469.5-.469c.1.021.2.162.3.422a2.565 2.565 0 0 0 .171.422c.167.229.333.281.5.156a2.636 2.636 0 0 0 .515-.547q.265-.359.3-.328c-.208-.083-.23-.166-.062-.25a1 1 0 0 1 .844-.156 1.184 1.184 0 0 1 .249.281q.28.563-.094.532a.682.682 0 0 1 .235.625c-.031.25-.194.365-.485.344a1.109 1.109 0 0 1-.454-.156 1.4 1.4 0 0 0-.453-.172.754.754 0 0 0-.437.172 3.955 3.955 0 0 0-.328.531 2.392 2.392 0 0 1-.36.531 1.844 1.844 0 0 1-1.563.344c.063 0 .057.063-.016.188a3.6 3.6 0 0 1-.3.422q-.188.234-.219.266a1.594 1.594 0 0 0-.375.719q0 .063-.032.422a1.572 1.572 0 0 1-.125.547q.375-.094.594.375.188.438 0 .469a3.689 3.689 0 0 1 1.813.125q1.125.406 1.282.812.187-.282.906-.032c.188.1.354.417.5.937a2.019 2.019 0 0 0 .422.812.512.512 0 0 0 .641.187l.093-.062c.084-.041.151-.078.2-.109a1.321 1.321 0 0 0 .172-.125.3.3 0 0 0 .109-.14.132.132 0 0 0-.046-.125 1.128 1.128 0 0 1-.328-.515.657.657 0 0 1 .047-.579 2.089 2.089 0 0 1 .5-.375 1.129 1.129 0 0 0 .5-.5.551.551 0 0 0-.312-.672q-.438-.265-.438-.484a.613.613 0 0 1 .2-.375.492.492 0 0 0 .172-.406 1.519 1.519 0 0 0-.109-.391 2.151 2.151 0 0 1-.125-.438.465.465 0 0 1 .14-.328 1.933 1.933 0 0 1 1.031.015 3.489 3.489 0 0 1 1.063.3 2.773 2.773 0 0 0 .406.188 3.763 3.763 0 0 1 .547.265c.155.094.244.182.265.265h-.149a.75.75 0 0 1 .265.438.326.326 0 0 1-.234.376.984.984 0 0 1 .5.094q.5.187.031.344a2 2 0 0 1 .265-.063.72.72 0 0 0 .266-.094.878.878 0 0 0 .156-.109.515.515 0 0 1 .141-.093 1 1 0 0 1 .141-.032.255.255 0 0 1 .187.047c.022 0 .068-.052.141-.156s.151-.208.234-.312.156-.156.219-.156a.237.237 0 0 1 .171.078.656.656 0 0 1 .125.172c.031.063.062.13.094.2s.057.131.078.172a.831.831 0 0 0 .3.328.838.838 0 0 1 .3.328c.021.063.062.219.125.469a1.029 1.029 0 0 0 .25.515 1.221 1.221 0 0 0 .468.234.492.492 0 0 0 .281-.031.749.749 0 0 1 .359-.032c.094.021.141.1.141.25q.187-.188.187-.25a1.319 1.319 0 0 0 .2.656.555.555 0 0 0 .547.219l-.063.688a.7.7 0 0 1-.469.234 1.708 1.708 0 0 0-.469.141 2.157 2.157 0 0 0-.453.375c-.24.229-.338.365-.3.406a1.522 1.522 0 0 0-1.594-.344 7.862 7.862 0 0 0-1.625.375 2.273 2.273 0 0 0-.688.469.983.983 0 0 0-.109.219q-.078.187-.156.344c-.053.1-.1.156-.14.156a.8.8 0 0 0 .422-.3 1.809 1.809 0 0 1 .3-.3 1.681 1.681 0 0 1 1.345-.372q.687.188.218.5c-.041.041-.151.057-.328.047a1.126 1.126 0 0 0-.36.016 1.651 1.651 0 0 1 .47.171.2.2 0 0 1 .093.3q.5.281.188.625a1.13 1.13 0 0 1-.969.344q.094 0 0 .125l-.532.344q-.062.031-.406.156a1.061 1.061 0 0 0-.469.281.625.625 0 0 0-.094.376 1.66 1.66 0 0 1-.031.375c-.021.084-.1.1-.249.063q-.094.187-.578.3a1.052 1.052 0 0 0-.641.328.361.361 0 0 1-.032.5.4.4 0 0 1-.656-.062.451.451 0 0 0-.233.306.58.58 0 0 1-.234.344c.146.229.124.4-.062.5a.431.431 0 0 1 .14.063 2.349 2.349 0 0 1 .235.156.454.454 0 0 0 .156.094c-.083.187-.2.281-.344.281q.188.5-.468 1.094a1.435 1.435 0 0 1-.391.25 4.756 4.756 0 0 1-.485.2 1.019 1.019 0 0 0-.25.109 2.118 2.118 0 0 0-.469.578.675.675 0 0 0-.047.578.705.705 0 0 0 .579.375l.03.25v.562l.031.25q.032.219.047.391a3.1 3.1 0 0 1 0 .437c-.01.177-.057.276-.14.3a.57.57 0 0 1-.344-.063q-.251-.125-.594-1.375a2.086 2.086 0 0 0-.375-.75.941.941 0 0 1-.265.2c-.072.031-.125.037-.156.016a2.058 2.058 0 0 1-.172-.14 2.087 2.087 0 0 0-.218-.172 1.659 1.659 0 0 0-.547-.156 1.012 1.012 0 0 1-.484-.156q-.751.563-.907-.281a.661.661 0 0 0 .016.422 2.451 2.451 0 0 1 .078.3q-.219.407-.687.062-.188-.187-.86-.047a1.8 1.8 0 0 1-.891.047c.021 0 .063.031.125.094a.853.853 0 0 1 .125.093.393.393 0 0 1-.094.187.133.133 0 0 1-.125.047.318.318 0 0 0-.141 0 .527.527 0 0 0-.141.046 1.93 1.93 0 0 0-.312.328 1.555 1.555 0 0 1-.281.3 2.061 2.061 0 0 1 .172.766q-.016.266-.094.781a5.775 5.775 0 0 0-.078.829 2.873 2.873 0 0 0 .3 1.156 1.983 1.983 0 0 0 .7.906 1.848 1.848 0 0 0 .75.156 1.826 1.826 0 0 0 .75-.062.769.769 0 0 0 .281-.218 1.057 1.057 0 0 0 .156-.36q.063-.234.094-.327a.863.863 0 0 1 .812-.626.916.916 0 0 1 .548.078.275.275 0 0 1 .14.3 1.572 1.572 0 0 1-.124.391 6.533 6.533 0 0 1-.235.453 1.727 1.727 0 0 0-.171.376 5.208 5.208 0 0 0-.109.7 3.866 3.866 0 0 1-.079.547 1.819 1.819 0 0 0 .469.031.742.742 0 0 1 .047-.2.889.889 0 0 0 .047-.172.617.617 0 0 0 .5.281.475.475 0 0 0 .5-.25q.063.094.375.469a1.351 1.351 0 0 1 .344.625c.021.084.062.219.124.407a.775.775 0 0 1 .063.391c-.021.072-.125.109-.312.109a.144.144 0 0 0-.156.094.426.426 0 0 0 0 .234 2.1 2.1 0 0 0 .078.266 2.034 2.034 0 0 0 .124.266.577.577 0 0 1 .079.171 1.053 1.053 0 0 0 1.527.56q0 .906-.438 1c-.162.04-.351-.065-.562-.314zm.467 7.06a2.5 2.5 0 0 1-.06-.5 1.15 1.15 0 0 1 .218-.672 1.445 1.445 0 0 0 .25-.641q-.5-.125-.376-.812a2.576 2.576 0 0 1 .906-1.25 1.443 1.443 0 0 0 .375-1.5 8.641 8.641 0 0 1-.157-1.188 10.633 10.633 0 0 0-.125-1.094c0 .062.1.12.3.172s.318.12.359.2a1.893 1.893 0 0 0 .156-.343 1.59 1.59 0 0 1 .187-.375 1.064 1.064 0 0 1 .266-.235 3.069 3.069 0 0 1 .266-.172 2.394 2.394 0 0 0 .281-.2q.219-.172.36-.265a1.038 1.038 0 0 1 .375-.14.267.267 0 0 1 .328.14q.157.188-.062.578t0 .548a2.33 2.33 0 0 0 .062-.407.756.756 0 0 1 .188-.469.711.711 0 0 1 .36-.218.445.445 0 0 1 .312.047 2.779 2.779 0 0 1 .328.218.879.879 0 0 0 .344.172 3.87 3.87 0 0 1 1.125.688c-.021-.021-.021-.047 0-.079a.329.329 0 0 1 .125-.094c.062-.031.119-.062.172-.094a.876.876 0 0 1 .172-.077l.094-.031a1.073 1.073 0 0 0 .312-.032.359.359 0 0 1 .266.063 2.13 2.13 0 0 1 .234.14c.042.031.115.088.219.172a2.747 2.747 0 0 1 .218.187c.063.041.178.115.344.219s.3.187.391.249a.82.82 0 0 1 .249.281.616.616 0 0 1 .079.407 4.934 4.934 0 0 1 .75.249 1.122 1.122 0 0 0 .391.109.753.753 0 0 1 .391.14 19.316 19.316 0 0 1-10.971 5.909z" fill="#53575a"/></svg>