<svg xmlns="http://www.w3.org/2000/svg" viewBox="0 0 64 64"><path data-name="Path 1170" d="M32 0A32 32 0 1 1 0 32 32 32 0 0 1 32 0z" fill="#dfe0e0"/><path data-name="Path 1171" d="M51.978 28.271q-.022-1.205-.189-3.047a27.711 27.711 0 0 0-.48-3.293 5.191 5.191 0 0 0-1.551-2.746 4.758 4.758 0 0 0-2.779-1.295A146.439 146.439 0 0 0 32 17.333a146.433 146.433 0 0 0-14.978.558 4.706 4.706 0 0 0-2.768 1.295 5.221 5.221 0 0 0-1.54 2.746 24.705 24.705 0 0 0-.5 3.293q-.169 1.84-.192 3.046T12 31.619q0 2.143.023 3.348t.19 3.047a27.609 27.609 0 0 0 .48 3.293 5.187 5.187 0 0 0 1.551 2.745 4.76 4.76 0 0 0 2.778 1.293 146.289 146.289 0 0 0 14.978.56 146.291 146.291 0 0 0 14.978-.558 4.707 4.707 0 0 0 2.768-1.295 5.221 5.221 0 0 0 1.54-2.745 24.72 24.72 0 0 0 .5-3.293q.167-1.841.189-3.047T52 31.619q0-2.143-.022-3.348zM39.9 32.824l-11.427 7.143a1.273 1.273 0 0 1-.759.223 1.544 1.544 0 0 1-.692-.179 1.329 1.329 0 0 1-.736-1.25V24.476a1.33 1.33 0 0 1 .736-1.25 1.344 1.344 0 0 1 1.451.045L39.9 30.414a1.42 1.42 0 0 1 0 2.41z" fill="#282d31"/></svg>